<svg xmlns="http://www.w3.org/2000/svg" width="1800" height="1080" viewBox="0 0 1800 1080">
<rect x="0" y="0" width="100%" height="100%" fill="white"/>
<text x="930.0" y="58" text-anchor="middle" font-size="40" font-family="Arial, sans-serif" fill="#111111">All-Levels Pass Rate (Count / 100)</text>
<rect x="140" y="120" width="1580" height="740" fill="none" stroke="#333333" stroke-width="2"/>
<line x1="140" y1="860.0" x2="1720" y2="860.0" stroke="#E5E7EB" stroke-width="1"/>
<text x="16" y="866.0" font-size="20" font-family="Arial, sans-serif" fill="#374151">0.00</text>
<line x1="140" y1="712.0" x2="1720" y2="712.0" stroke="#E5E7EB" stroke-width="1"/>
<text x="16" y="718.0" font-size="20" font-family="Arial, sans-serif" fill="#374151">0.04</text>
<line x1="140" y1="564.0" x2="1720" y2="564.0" stroke="#E5E7EB" stroke-width="1"/>
<text x="16" y="570.0" font-size="20" font-family="Arial, sans-serif" fill="#374151">0.08</text>
<line x1="140" y1="416.0" x2="1720" y2="416.0" stroke="#E5E7EB" stroke-width="1"/>
<text x="16" y="422.0" font-size="20" font-family="Arial, sans-serif" fill="#374151">0.12</text>
<line x1="140" y1="268.0" x2="1720" y2="268.0" stroke="#E5E7EB" stroke-width="1"/>
<text x="16" y="274.0" font-size="20" font-family="Arial, sans-serif" fill="#374151">0.16</text>
<line x1="140" y1="120.0" x2="1720" y2="120.0" stroke="#E5E7EB" stroke-width="1"/>
<text x="16" y="126.0" font-size="20" font-family="Arial, sans-serif" fill="#374151">0.20</text>
<line x1="140" y1="860" x2="1720" y2="860" stroke="#374151" stroke-width="2"/>
<line x1="140" y1="120" x2="140" y2="860" stroke="#374151" stroke-width="2"/>
<text x="337.5" y="908.0" text-anchor="middle" font-size="22" font-family="Arial, sans-serif" fill="#111827">v1/OpenAI</text>
<rect x="197.3" y="712.0" width="280.4" height="148.0" fill="#3B82F6" stroke="#374151" stroke-width="1"/>
<text x="337.5" y="702.0" text-anchor="middle" font-size="17" font-family="Arial, sans-serif" fill="#111827">0.040</text>
<text x="732.5" y="908.0" text-anchor="middle" font-size="22" font-family="Arial, sans-serif" fill="#111827">v1/Claude</text>
<rect x="592.3" y="860.0" width="280.4" height="1.0" fill="#3B82F6" stroke="#374151" stroke-width="1"/>
<text x="732.5" y="850.0" text-anchor="middle" font-size="17" font-family="Arial, sans-serif" fill="#111827">0.000</text>
<text x="1127.5" y="908.0" text-anchor="middle" font-size="22" font-family="Arial, sans-serif" fill="#111827">v4/OpenAI</text>
<rect x="987.3" y="860.0" width="280.4" height="1.0" fill="#3B82F6" stroke="#374151" stroke-width="1"/>
<text x="1127.5" y="850.0" text-anchor="middle" font-size="17" font-family="Arial, sans-serif" fill="#111827">0.000</text>
<text x="1522.5" y="908.0" text-anchor="middle" font-size="22" font-family="Arial, sans-serif" fill="#111827">v4/Claude</text>
<rect x="1382.3" y="860.0" width="280.4" height="1.0" fill="#3B82F6" stroke="#374151" stroke-width="1"/>
<text x="1522.5" y="850.0" text-anchor="middle" font-size="17" font-family="Arial, sans-serif" fill="#111827">0.000</text>
<rect x="1280" y="140" width="24" height="20" fill="#3B82F6" stroke="#374151" stroke-width="1"/>
<text x="1314" y="156" font-size="21" font-family="Arial, sans-serif" fill="#111827">All-Levels Pass Rate</text>
</svg>