<svg xmlns="http://www.w3.org/2000/svg" width="1800" height="1080" viewBox="0 0 1800 1080">
<rect x="0" y="0" width="100%" height="100%" fill="white"/>
<text x="930.0" y="58" text-anchor="middle" font-size="40" font-family="Arial, sans-serif" fill="#111111">Rebuild Metrics (Latest Repaired Plans)</text>
<rect x="140" y="120" width="1580" height="740" fill="none" stroke="#333333" stroke-width="2"/>
<line x1="140" y1="860.0" x2="1720" y2="860.0" stroke="#E5E7EB" stroke-width="1"/>
<text x="16" y="866.0" font-size="20" font-family="Arial, sans-serif" fill="#374151">0.00</text>
<line x1="140" y1="712.0" x2="1720" y2="712.0" stroke="#E5E7EB" stroke-width="1"/>
<text x="16" y="718.0" font-size="20" font-family="Arial, sans-serif" fill="#374151">0.10</text>
<line x1="140" y1="564.0" x2="1720" y2="564.0" stroke="#E5E7EB" stroke-width="1"/>
<text x="16" y="570.0" font-size="20" font-family="Arial, sans-serif" fill="#374151">0.20</text>
<line x1="140" y1="416.0" x2="1720" y2="416.0" stroke="#E5E7EB" stroke-width="1"/>
<text x="16" y="422.0" font-size="20" font-family="Arial, sans-serif" fill="#374151">0.30</text>
<line x1="140" y1="268.0" x2="1720" y2="268.0" stroke="#E5E7EB" stroke-width="1"/>
<text x="16" y="274.0" font-size="20" font-family="Arial, sans-serif" fill="#374151">0.40</text>
<line x1="140" y1="120.0" x2="1720" y2="120.0" stroke="#E5E7EB" stroke-width="1"/>
<text x="16" y="126.0" font-size="20" font-family="Arial, sans-serif" fill="#374151">0.50</text>
<line x1="140" y1="860" x2="1720" y2="860" stroke="#374151" stroke-width="2"/>
<line x1="140" y1="120" x2="140" y2="860" stroke="#374151" stroke-width="2"/>
<text x="337.5" y="908.0" text-anchor="middle" font-size="22" font-family="Arial, sans-serif" fill="#111827">v1/OpenAI</text>
<rect x="197.3" y="494.8" width="90.8" height="365.2" fill="#3B82F6" stroke="#374151" stroke-width="1"/>
<text x="242.7" y="484.8" text-anchor="middle" font-size="17" font-family="Arial, sans-serif" fill="#111827">0.247</text>
<rect x="292.1" y="298.6" width="90.8" height="561.4" fill="#10B981" stroke="#374151" stroke-width="1"/>
<text x="337.5" y="288.6" text-anchor="middle" font-size="17" font-family="Arial, sans-serif" fill="#111827">0.379</text>
<rect x="386.9" y="591.0" width="90.8" height="269.0" fill="#F59E0B" stroke="#374151" stroke-width="1"/>
<text x="432.3" y="581.0" text-anchor="middle" font-size="17" font-family="Arial, sans-serif" fill="#111827">0.182</text>
<text x="732.5" y="908.0" text-anchor="middle" font-size="22" font-family="Arial, sans-serif" fill="#111827">v1/Claude</text>
<rect x="592.3" y="522.6" width="90.8" height="337.4" fill="#3B82F6" stroke="#374151" stroke-width="1"/>
<text x="637.7" y="512.6" text-anchor="middle" font-size="17" font-family="Arial, sans-serif" fill="#111827">0.228</text>
<rect x="687.1" y="318.1" width="90.8" height="541.9" fill="#10B981" stroke="#374151" stroke-width="1"/>
<text x="732.5" y="308.1" text-anchor="middle" font-size="17" font-family="Arial, sans-serif" fill="#111827">0.366</text>
<rect x="781.9" y="636.2" width="90.8" height="223.8" fill="#F59E0B" stroke="#374151" stroke-width="1"/>
<text x="827.3" y="626.2" text-anchor="middle" font-size="17" font-family="Arial, sans-serif" fill="#111827">0.151</text>
<text x="1127.5" y="908.0" text-anchor="middle" font-size="22" font-family="Arial, sans-serif" fill="#111827">v4/OpenAI</text>
<rect x="987.3" y="619.7" width="90.8" height="240.3" fill="#3B82F6" stroke="#374151" stroke-width="1"/>
<text x="1032.7" y="609.7" text-anchor="middle" font-size="17" font-family="Arial, sans-serif" fill="#111827">0.162</text>
<rect x="1082.1" y="456.6" width="90.8" height="403.4" fill="#10B981" stroke="#374151" stroke-width="1"/>
<text x="1127.5" y="446.6" text-anchor="middle" font-size="17" font-family="Arial, sans-serif" fill="#111827">0.273</text>
<rect x="1176.9" y="596.1" width="90.8" height="263.9" fill="#F59E0B" stroke="#374151" stroke-width="1"/>
<text x="1222.3" y="586.1" text-anchor="middle" font-size="17" font-family="Arial, sans-serif" fill="#111827">0.178</text>
<text x="1522.5" y="908.0" text-anchor="middle" font-size="22" font-family="Arial, sans-serif" fill="#111827">v4/Claude</text>
<rect x="1382.3" y="609.2" width="90.8" height="250.8" fill="#3B82F6" stroke="#374151" stroke-width="1"/>
<text x="1427.7" y="599.2" text-anchor="middle" font-size="17" font-family="Arial, sans-serif" fill="#111827">0.169</text>
<rect x="1477.1" y="437.6" width="90.8" height="422.4" fill="#10B981" stroke="#374151" stroke-width="1"/>
<text x="1522.5" y="427.6" text-anchor="middle" font-size="17" font-family="Arial, sans-serif" fill="#111827">0.285</text>
<rect x="1571.9" y="599.8" width="90.8" height="260.2" fill="#F59E0B" stroke="#374151" stroke-width="1"/>
<text x="1617.3" y="589.8" text-anchor="middle" font-size="17" font-family="Arial, sans-serif" fill="#111827">0.176</text>
<rect x="1280" y="140" width="24" height="20" fill="#3B82F6" stroke="#374151" stroke-width="1"/>
<text x="1314" y="156" font-size="21" font-family="Arial, sans-serif" fill="#111827">IoU</text>
<rect x="1280" y="174" width="24" height="20" fill="#10B981" stroke="#374151" stroke-width="1"/>
<text x="1314" y="190" font-size="21" font-family="Arial, sans-serif" fill="#111827">F1</text>
<rect x="1280" y="208" width="24" height="20" fill="#F59E0B" stroke="#374151" stroke-width="1"/>
<text x="1314" y="224" font-size="21" font-family="Arial, sans-serif" fill="#111827">Material Match</text>
</svg>